<?xml version="1.0" encoding="UTF-8"?>
<svg id="text_object" data-name="text object" xmlns="http://www.w3.org/2000/svg" viewBox="0 0 200 200">
  <defs>
    <style>
      .cls-1 {
        fill: #f29e75;
      }

      .cls-2 {
        fill: #92c15b;
      }

      .cls-3 {
        fill: #ffe85f;
      }

      .cls-4 {
        fill: #a3d86f;
      }

      .cls-5 {
        fill: #628dd3;
      }

      .cls-6 {
        fill: #e53c3c;
      }

      .cls-7 {
        fill: #fff;
      }

      .cls-8 {
        fill: none;
        stroke: #05b499;
        stroke-linecap: round;
        stroke-linejoin: round;
        stroke-width: .61px;
      }

      .cls-9 {
        fill: #4c5b7f;
      }

      .cls-10 {
        fill: #05b499;
      }

      .cls-11 {
        fill: #d1d1d1;
      }

      .cls-12 {
        fill: #f26b6b;
      }
    </style>
  </defs>
  <g>
    <path class="cls-4" d="M63.88,76.07c1.12-1.47-.04-3.66-1.73-4.4-5.83-2.54-18.25-8.7-28.79-21.4-14.11-16.99-31.74,10.92-15.67,20.72,0,0-25.78,12.7-1.06,24.55,0,0-15.8,6.05-8.54,18.16,5.46,9.11,14.31,6.69,18.6,5.94,0,0,3.06,10.51,22.88,7.62,6.91-1.01-11.25-17.64,14.31-51.2h0Z"/>
    <path class="cls-4" d="M148.44,97.76s14.06,1.58,32.13-7.59c18.07-9.17,19.17,21.57,2.77,23.81,0,0,13.9,20.81-9.93,21.49,0,0,9.28,11.27-1.49,18.87-8.1,5.72-13.72.25-16.63-2.04,0,0-8.83,12.28-21.58-2.99s5.05-15.46,14.73-51.55h0Z"/>
    <path class="cls-1" d="M71.22,141.8c4.88,2.61,2.12,10.19.27,15.01-2.02,5.25-3.91,1.39-4.04-.98s-2.3,3.27-4.5,2.09c-2.2-1.17.66-6.34-1.66-4.65-2.28,1.66-6.14,1.82-3.71-2.57,2.27-4.09,7.73-12.06,13.65-8.9h0Z"/>
    <path class="cls-1" d="M104.83,152.12c-5.5-.58-7.48,7.24-8.64,12.27-1.27,5.48,2.46,3.34,3.9,1.46s.07,3.99,2.55,4.26,3.01-5.62,3.98-2.91c.96,2.65,4.06,4.95,4.52-.05.42-4.66.37-14.32-6.3-15.02h-.01Z"/>
    <path class="cls-12" d="M150.81,98.08v.31c-.08.02-.17.03-.25.05-.81.15-1.61.22-2.37.2h-.25c-.29.05-.59.1-.89.16-.16.02-.32.05-.48.08-.49.09-1,.17-1.54.25-.13.02-.27.04-.41.06-.27.04-.56.09-.84.13-.53.07-1.08.15-1.64.22-.41.06-.83.11-1.27.16-.04,0-.08,0-.11.01-.39.05-.8.1-1.21.14-.68.08-1.38.15-2.08.21-.24.02-.48.05-.72.07-1.69.15-3.48.28-5.34.36-.29.01-.58.02-.87.03-.25,0-.49.02-.74.02s-.5.01-.76.02c-.57.01-1.14.02-1.72.02h-2.34c-.39,0-.77-.01-1.16-.02-.31,0-.62-.01-.93-.03-.29,0-.57-.02-.86-.03-.49-.02-.97-.04-1.46-.08-.42-.02-.84-.05-1.26-.08h0c-.46-.03-.91-.07-1.37-.11-.55-.05-1.09-.1-1.64-.16-.43-.04-.87-.1-1.3-.15-.1-.01-.2-.02-.29-.04-.43-.05-.87-.11-1.3-.18-.49-.07-.99-.14-1.48-.22-.49-.08-.99-.17-1.48-.26-.49-.09-.97-.19-1.45-.29h-.06c-.49-.1-.97-.2-1.45-.32-.49-.11-.98-.23-1.47-.35-.49-.12-.98-.26-1.47-.39s-.97-.28-1.45-.42c-.54-.17-1.08-.34-1.62-.52-.27-.09-.53-.19-.8-.28-.21-.07-.41-.15-.62-.22-.38-.14-.75-.28-1.13-.42-.21-.08-.42-.16-.63-.25-.53-.21-1.05-.42-1.57-.64s-1.04-.45-1.55-.68c-1.54-.7-3.04-1.45-4.51-2.23-.25-.13-.49-.26-.73-.39-.24-.13-.49-.27-.73-.4-.96-.54-1.91-1.09-2.84-1.65-.4-.24-.79-.49-1.19-.73-.15-.1-.3-.19-.45-.29-.37-.23-.73-.47-1.08-.7-.89-.57-1.76-1.16-2.61-1.75-.42-.3-.84-.59-1.26-.89-.41-.3-.82-.59-1.22-.89s-.8-.59-1.19-.89-.78-.59-1.15-.88c-.19-.15-.38-.29-.56-.44-.93-.73-1.82-1.45-2.67-2.15-.34-.29-.67-.56-.99-.84-.17-.14-.32-.28-.49-.41-.39-.34-.79-.68-1.16-1-2.18-1.91-3.98-3.62-5.32-4.94-.13-.09-.26-.19-.39-.29-.26-.2-.51-.41-.77-.64-.12-.11-.25-.23-.37-.35h0l-.17-.17h0c.03-.06.07-.11.1-.16.03-.04.05-.08.08-.11,4.66-6.93,9.62-13.07,14.83-18.14,11.16-10.87,23.46-16.89,36.33-15.45-.92-1.74-1.68-3.88-.57-4.91,2.05-1.9,4.53.47,5.04,2.29.51,1.82.24-6.41,4.86-5,3.48,1.07,1.7,4.62.71,6.52-.18.35.16.6.41.49,1.38-.6,3.92-1.73,5.46-.11,1.86,1.94-.87,3.52-3.45,4.49,11.57,6,18.44,17.93,21.59,33.29.11.54.22,1.09.32,1.65.94,5.02,1.48,10.38,1.68,16,.07,1.87.1,3.77.09,5.69v.02Z"/>
    <circle cx="104.34" cy="66.89" r="4.63"/>
    <circle cx="139.77" cy="69.24" r="4.63"/>
    <path class="cls-2" d="M74.35,151.61c-10.71-5.1-17.73-11.86-21.77-19.62-6.9-13.24-5.11-29.36,1.97-44.99,1.79-3.96,3.92-7.88,6.33-11.71.8-1.28,1.62-2.54,2.44-3.77q.55-.82,0,0h0c.21.64,6.94,21.17,20.69,37.03,0,0-13.38,14.68-9.66,43.05h0Z"/>
    <path class="cls-3" d="M148.51,120.5c-3.41,14.99-10.76,27.51-22.76,33.97-10.06,5.42-23.41,6.58-40.45,1.35-4.02-1.23-7.66-2.65-10.95-4.22-16.28-21.14,2.46-41.99,2.46-41.99,0,0,30.25,17.97,71.7,10.89h0Z"/>
    <path class="cls-5" d="M150.81,98.39c0,1.48-.04,2.98-.1,4.49-.15,4.53-.59,8.96-1.33,13.24-.26,1.48-.55,2.95-.88,4.38-41.45,7.09-71.7-10.89-71.7-10.89-13.75-15.86-13.28-37.44-13.49-38.08.06.05.11.11.17.16.12.12.25.24.37.36.25.23.51.44.77.64.13.1.26.2.39.29h0c1.34,1.32,3.14,3.03,5.32,4.94.38.33.77.66,1.16,1,.16.13.32.27.49.41.32.28.66.55.99.84.85.7,1.74,1.42,2.67,2.15.19.15.37.29.56.44.38.3.76.59,1.15.88.39.3.79.59,1.19.89s.81.59,1.22.89.83.59,1.26.89c.85.59,1.72,1.18,2.61,1.75.36.23.72.47,1.08.7.15.1.3.19.45.29.39.24.79.49,1.19.73.93.56,1.87,1.11,2.84,1.65.24.13.49.27.73.4.24.13.49.27.73.39,1.47.78,2.97,1.53,4.51,2.23.51.23,1.03.46,1.55.68.52.22,1.04.43,1.57.64.21.09.42.17.63.25.38.15.75.29,1.13.42.21.08.41.15.62.22.27.1.53.19.8.28.27.09.54.18.81.27s.54.17.81.25c.48.15.97.29,1.45.43.49.13.98.27,1.47.39s.98.24,1.47.35.97.22,1.45.32h.06c.49.1.97.2,1.45.29.49.09.99.18,1.48.26.49.08.99.16,1.48.22.43.07.87.12,1.3.18.1.01.2.02.29.04.43.05.87.1,1.3.15.55.06,1.09.11,1.64.16.46.04.91.08,1.37.11h0c.42.03.84.06,1.26.08.49.03.98.06,1.46.08.29.01.58.02.86.03.31.01.62.02.93.03.39,0,.77.02,1.16.02h2.34c.58,0,1.15,0,1.72-.02.25,0,.5-.01.76-.02.25,0,.49-.01.74-.02.29,0,.58-.02.87-.03,1.86-.08,3.65-.2,5.34-.36.24-.02.49-.04.72-.07.71-.07,1.41-.14,2.08-.21.41-.04.81-.09,1.21-.14.04,0,.08,0,.11-.01.43-.05.85-.1,1.27-.16.57-.08,1.11-.15,1.64-.22.29-.04.57-.09.84-.13.14-.02.28-.04.41-.06.14-.02.27-.04.4-.06.24-.04.48-.08.71-.12.14-.02.29-.05.42-.07.16-.03.32-.06.48-.08.31-.06.61-.11.89-.16h.25c.76.02,1.56-.05,2.37-.2.08-.01.17-.02.25-.05l.03-.02Z"/>
    <g>
      <path class="cls-11" d="M133.19,78.95c-.89,1.82-3.27,6.04-6.93,6.29-4.29.29-8.71-4.63-9.7-7.67,3.66,3.37,14.09,6.59,16.63,1.37h0Z"/>
      <path class="cls-7" d="M133.26,78.52c0,.13,0,.28-.07.43-2.72,6.82-12.97,2-16.64-1.37-.12-.35-.18-.65-.19-.92-.09-2.74,5.05-3.95,10.19-2.89,4.13.85,6.82,2.93,6.7,4.75h.01Z"/>
    </g>
    <circle class="cls-7" cx="105.39" cy="66.25" r="1.11"/>
    <circle class="cls-7" cx="141.1" cy="68.69" r="1.11"/>
    <path class="cls-6" d="M102.53,79.36c-1.38,4.36-6.16,6.8-10.67,5.47-4.51-1.34-7.04-5.95-5.66-10.31s6.16-6.8,10.67-5.47c4.51,1.34,7.04,5.95,5.66,10.31Z"/>
    <path class="cls-6" d="M150.72,92.38c-.49-.05-.97-.16-1.46-.3-4.36-1.34-6.8-5.95-5.47-10.31.81-2.64,2.82-4.57,5.24-5.39.94,5.02,1.48,10.38,1.68,16h.01Z"/>
  </g>
  <g>
    <g>
      <path class="cls-10" d="M81.44,127.82l-17.75-1.41c-.5-.04-.87-.47-.83-.95l.38-4.6,1.25-15.06,1.43-17.22c.04-.48.48-.85.98-.81l17.75,1.41c.5.04.87.47.83.95l-1.43,17.22-1.25,15.06-.38,4.6c-.04.48-.48.85-.98.81Z"/>
      <polygon class="cls-9" points="82.8 122.41 63.24 120.86 64.49 105.81 84.05 107.36 82.8 122.41"/>
    </g>
    <g>
      <path class="cls-10" d="M76.54,89.04l-2.52,4.44-7.49,13.22-6.35,11.19-7.43,13.1-1.5,2.65c-.37.65-1.21.89-1.88.53l-14.74-7.97c-.67-.36-.91-1.19-.54-1.84l1.47-2.59,7.49-13.22,6.31-11.14,7.49-13.22,2.52-4.44c.37-.65,1.21-.89,1.88-.53l14.74,7.97c.67.36.91,1.18.54,1.83v.02Z"/>
      <polygon class="cls-9" points="74.02 93.48 66.53 106.7 49.37 97.42 56.86 84.21 74.02 93.48"/>
      <path class="cls-9" d="M60.18,117.89l-7.43,13.1c-.19-.06-.38-.14-.57-.23l-16.63-8.99,7.49-13.22,16.63,8.99c.18.1.35.22.5.35h.01Z"/>
    </g>
    <g>
      <path class="cls-10" d="M156.43,105.81c-.39.44-.89.86-2.94,1.83-3.87,1.83-7.4,2.87-10.18,3.5-2.21.64-4.37,1.21-6.5,1.72-7.62,1.8-14.72,2.73-21.3,2.94-8.96.3-16.96-.72-24.05-2.6-8.64-2.29-15.91-5.86-21.9-9.9-7.8-5.26-13.41-11.33-17.01-16.42-3.54-5.01-5.13-9.07-4.91-10.49.63-4.22,7-4.71,13.04-7.8,2.53-1.3,5.7-.88,7.83,1.02.59.52,1.22,1.1,1.9,1.73,3.65,3.35,8.76,8.02,16.04,12.23,3.7,2.14,7.96,4.15,12.87,5.82,2.48.85,5.14,1.6,7.97,2.23,4.18.93,8.3,1.36,12.1,1.49,5.27.18,9.91-.2,13.18-.59,1.69-.2,3.01-.41,3.87-.53,9.81-1.45,13.01-3.5,16.55-1.12.21.14.42.3.62.47,3.1,2.53,4.78,7.52,4.19,11.28h0c-.19,1.25-.64,2.37-1.37,3.21v-.02Z"/>
      <path class="cls-9" d="M86.46,83.56l-16.89,19.73c-7.8-5.26-13.41-11.33-17.01-16.42l17.86-15.54c3.65,3.35,8.76,8.02,16.04,12.23Z"/>
      <path class="cls-9" d="M115.52,115.79c-8.96.3-16.96-.72-24.05-2.6l7.86-23.82c2.48.85,5.14,1.6,7.97,2.23,4.18.93,8.3,1.36,12.1,1.49l-3.87,22.69h-.01Z"/>
      <path class="cls-9" d="M156.43,105.81c-.39.44-.89.86-2.94,1.83-3.87,1.83-7.4,2.87-10.18,3.5-2.21.64-4.37,1.21-6.5,1.72l-4.25-20.35c1.69-.2,3.01-.41,3.87-.53,9.81-1.45,13.01-3.5,16.55-1.12.21.14.42.3.62.47l4.19,11.28h0c-.19,1.25-.64,2.37-1.37,3.21h0Z"/>
    </g>
    <g>
      <path class="cls-8" d="M32.17,128.54c.61.13,1.17-.23,1.49-.66.24-.31.41-.67.48-1.04.06-.31.07-.63.13-.93s.21-.61.5-.8"/>
      <path class="cls-8" d="M33.65,129.43c.61.13,1.17-.23,1.49-.66.24-.31.41-.67.48-1.04.06-.31.07-.63.13-.93s.21-.61.5-.8"/>
      <path class="cls-8" d="M35.03,130.45c.61.13,1.17-.23,1.49-.66.24-.31.41-.67.48-1.04.06-.31.07-.63.13-.93s.21-.61.5-.8"/>
      <path class="cls-8" d="M36.57,131.38c.61.13,1.17-.23,1.49-.66.24-.31.41-.67.48-1.04.06-.31.07-.63.13-.93s.21-.61.5-.8"/>
      <path class="cls-8" d="M38.17,132.41c.61.13,1.17-.23,1.49-.66.24-.31.41-.67.48-1.04.06-.31.07-.63.13-.93s.21-.61.5-.8"/>
      <path class="cls-8" d="M39.69,133.18c.61.13,1.17-.23,1.49-.66.24-.31.41-.67.48-1.04.06-.31.07-.63.13-.93s.21-.61.5-.8"/>
      <path class="cls-8" d="M41.3,134.13c.61.13,1.17-.23,1.49-.66.24-.31.41-.67.48-1.04.06-.31.07-.63.13-.93s.21-.61.5-.8"/>
      <path class="cls-8" d="M43.35,134.93c.61.13,1.17-.23,1.49-.66.24-.31.41-.67.48-1.04.06-.31.07-.63.13-.93s.21-.61.5-.8"/>
      <path class="cls-8" d="M45.28,135.73c.61.13,1.17-.23,1.49-.66.24-.31.41-.67.48-1.04.06-.31.07-.63.13-.93s.21-.61.5-.8"/>
      <path class="cls-8" d="M46.5,136.65c.61.13,1.17-.23,1.49-.66.24-.31.41-.67.48-1.04.06-.31.07-.63.13-.93s.21-.61.5-.8"/>
      <path class="cls-8" d="M47.92,137.43c.61.13,1.17-.23,1.49-.66.24-.31.41-.67.48-1.04.06-.31.07-.63.13-.93s.21-.61.5-.8"/>
    </g>
    <g>
      <path class="cls-8" d="M82.1,126.1c-.6.15-.94.72-1.04,1.24-.07.38-.06.78.05,1.14.08.3.23.59.31.89s.09.64-.08.93"/>
      <path class="cls-8" d="M80.36,125.95c-.6.15-.94.72-1.04,1.24-.07.38-.06.78.05,1.14.08.3.23.59.31.89s.09.64-.08.93"/>
      <path class="cls-8" d="M78.67,125.64c-.6.15-.94.72-1.04,1.24-.07.38-.06.78.05,1.14.08.3.23.59.31.89s.09.64-.08.93"/>
      <path class="cls-8" d="M76.86,125.48c-.6.15-.94.72-1.04,1.24-.07.38-.06.78.05,1.14.08.3.23.59.31.89s.09.64-.08.93"/>
      <path class="cls-8" d="M74.96,125.24c-.6.15-.94.72-1.04,1.24-.07.38-.06.78.05,1.14.08.3.23.59.31.89s.09.64-.08.93"/>
      <path class="cls-8" d="M73.25,125.21c-.6.15-.94.72-1.04,1.24-.07.38-.06.78.05,1.14.08.3.23.59.31.89s.09.64-.08.93"/>
      <path class="cls-8" d="M71.37,125.07c-.6.15-.94.72-1.04,1.24-.07.38-.06.78.05,1.14.08.3.23.59.31.89s.09.64-.08.93"/>
      <path class="cls-8" d="M69.17,125.24c-.6.15-.94.72-1.04,1.24-.07.38-.06.78.05,1.14.08.3.23.59.31.89s.09.64-.08.93"/>
      <path class="cls-8" d="M67.08,125.37c-.6.15-.94.72-1.04,1.24-.07.38-.06.78.05,1.14.08.3.23.59.31.89s.09.64-.08.93"/>
      <path class="cls-8" d="M65.57,125.07c-.6.15-.94.72-1.04,1.24-.07.38-.06.78.05,1.14.08.3.23.59.31.89s.09.64-.08.93"/>
      <path class="cls-8" d="M63.94,124.99c-.6.15-.94.72-1.04,1.24-.07.38-.06.78.05,1.14.08.3.23.59.31.89s.09.64-.08.93"/>
    </g>
  </g>
</svg>