<?xml version="1.0" encoding="UTF-8"?>
<svg id="Q_heart" data-name="Q+heart" xmlns="http://www.w3.org/2000/svg" viewBox="0 0 48 43">
  <defs>
    <style>
      .cls-1 {
        fill: #ffb9b6;
      }

      .cls-2 {
        fill: #ef4837;
      }
    </style>
  </defs>
  <path class="cls-2" d="M.69,14.18c-.07-.8-.09-2.41,0-3.2C1.79,1.73,13.99-3.45,20.99,3.36l3.1,3.48c4.53-7.46,14.31-9.22,20.21-2.16,6.24,7.47,1.95,16.11-3.66,22.3-5.06,5.59-11.24,10.45-16.57,15.79-3.73-3.45-7.61-6.8-11.26-10.33C7.74,27.55,1.37,21.64.69,14.18Z"/>
  <path class="cls-1" d="M3.78,8.56c.12-2.63,2.34-5.17,5-5.41-2.03,1.56-3.51,3.28-5,5.41h0Z"/>
</svg>